<svg xmlns="http://www.w3.org/2000/svg" width="512" height="512">
<path style="fill: #ffffff00; stroke:none;" d="M0 0L0 248L1 248C3.52426 239.258 10.4579 231.75 19 228.468C27.5768 225.173 38.9398 227 48 227C71.231 227 113.637 220.308 113.996 255C114.37 291.103 73.6051 285 49 285C39.6632 285 27.8343 286.926 19 283.532C10.4579 280.25 3.52427 272.742 1 264L0 264L0 512L248 512L248 511C239.258 508.476 231.75 501.542 228.468 493C225.074 484.166 227 472.337 227 463C227 438.395 220.897 397.63 257 398.004C291.692 398.363 285 440.769 285 464C285 473.06 286.827 484.423 283.532 493C280.25 501.542 272.742 508.476 264 511L264 512L512 512L512 264L511 264C508.476 272.742 501.542 280.25 493 283.532C484.166 286.926 472.337 285 463 285C438.395 285 397.63 291.103 398.004 255C398.363 220.308 440.769 227 464 227C473.06 227 484.423 225.173 493 228.468C501.542 231.75 508.476 239.258 511 248L512 248L512 0L264 0L264 1C272.742 3.52426 280.25 10.4579 283.532 19C286.926 27.8343 285 39.6632 285 49C285 73.6051 291.103 114.37 255 113.996C220.308 113.637 227 71.231 227 48C227 38.9398 225.173 27.5768 228.468 19C231.75 10.4579 239.258 3.52426 248 1L225 0L175 0L0 0z"/>
<path style="fill: #6c4d7b; stroke:none;" d="M248 0.529327C238.578 2.69208 230.44 10.7271 227.927 20C225.416 29.2694 227 40.4557 227 50C227 71.1939 220.381 112.513 252 113.961C255.905 114.139 260.155 114.308 264 113.521C274.114 111.449 281.734 102.74 284.1 93C286.248 84.1589 285 74.0493 285 65C285 43.1186 291.941 0.87677 259 0.0146484C255.396 -0.0796509 251.534 -0.281982 248 0.529327z"/>
<path style="fill:#fff30d; stroke:none;" d="M227 21L228 22L227 21M284 21L285 22L284 21z"/>
<path style="fill: #6c4d7b; stroke:none;" d="M88 66.5286C70.2734 70.5339 61.0512 90.4644 68.0185 106.985C71.6296 115.548 79.579 120.654 85.8302 127.09C101.915 143.649 118.395 170.009 145 162.945C162.001 158.431 167.782 137.945 161.931 123C158.61 114.518 150.291 108.291 144 102C129.201 87.2006 112.016 61.1022 88 66.5286M409 66.6096C398.783 69.2284 392.797 77.7385 385.83 84.9105C374.117 96.9692 353.964 109.248 349.043 126C342.449 148.449 361.246 168.337 384 163.482C401.78 159.689 414.732 138.173 427.09 126.17C434.262 119.203 442.772 113.217 445.39 103C451.067 80.853 431.099 60.9448 409 66.6096z"/>
<path style="fill:#ff9c18; stroke:none;" d="M105 67L106 68L105 67M406 67L407 68L406 67M82 68L83 69L82 68M112 71L113 72L112 71M399 71L400 72L399 71M72 76L73 77L72 76M439 76L440 77L439 76M443 82L444 83L443 82M124 83L125 84L124 83M387 83L388 84L387 83M67 84L68 85L67 84M125 84L126 85L125 84M386 84L387 85L386 84M128 87L129 88L128 87M383 87L384 88L383 87M227.333 91.6667L227.667 92.3333L227.333 91.6667M284.333 91.6667L284.667 92.3333L284.333 91.6667M228 95L229 96L228 95M283 95L284 96L283 95M67 105L68 106L67 105M234 105L235 106L234 105M277 105L278 106L277 105M444 105L445 106L444 105M242 111L243 112L242 111M269 111L270 112L269 111M71 112L72 113L71 112M440 112L441 113L440 112M83 124L84 125L83 124M162 124L163 125L162 124M349 124L350 125L349 124M428 124L429 125L428 124M84 125L85 126L84 125M427 125L428 126L427 125z"/>
<path style="fill:#ff0101; stroke:none;" d="M242 127L243 128L242 127z"/>
<path style="fill:#fff30d; stroke:none;" d="M243 127L243 128L247 128L243 127z"/>
<path style="fill:#ff9c18; stroke:none;" d="M247 127L247 128L252 128L247 127z"/>
<path style="fill:#fff30d; stroke:none;" d="M252 127L253 128L252 127z"/>
<path style="fill: #6c4d7b; stroke:none;" d="M253 127.428C206.612 132.967 166.946 150.017 143.039 193C93.1683 282.664 168.012 395.794 270 383.715C335.131 376 384.821 322.354 384.821 256C384.821 188.878 324.622 118.876 253 127.428z"/>
<path style="fill:#fff30d; stroke:none;" d="M259 127L260 128L259 127z"/>
<path style="fill:#ff9c18; stroke:none;" d="M260 127L260 128L265 128L260 127z"/>
<path style="fill:#fff30d; stroke:none;" d="M265 127L265 128L269 128L265 127z"/>
<path style="fill:#ff0101; stroke:none;" d="M269 127L270 128L269 127z"/>
<path style="fill:#ff9c18; stroke:none;" d="M87 128L88 129L87 128M424 128L425 129L424 128z"/>
<path style="fill:#fff30d; stroke:none;" d="M202 138L203 139L202 138M309 138L310 139L309 138M200 139L201 140L200 139M311 139L312 140L311 139z"/>
<path style="fill:#ff9c18; stroke:none;" d="M198 140L199 141L198 140M313 140L314 141L313 140M181 150L182 151L181 150M330 150L331 151L330 150M170 159L171 160L170 159M341 159L342 160L341 159z"/>
<path style="fill:#fff30d; stroke:none;" d="M167 161L168 162L167 161M344 161L345 162L344 161z"/>
<path style="fill:#ff9c18; stroke:none;" d="M124 162L125 163L124 162M166 162L167 163L166 162M345 162L346 163L345 162M387 162L388 163L387 162M142 163L143 164L142 163M165 163L166 164L165 163M346 163L347 164L346 163M369 163L370 164L369 163M163 165L164 166L163 165M348 165L349 166L348 165z"/>
<path style="fill:#fff30d; stroke:none;" d="M162 166L163 167L162 166M349 166L350 167L349 166z"/>
<path style="fill:#ff0101; stroke:none;" d="M161 167L162 168L161 167M350 167L351 168L350 167z"/>
<path style="fill:#ff9c18; stroke:none;" d="M150 181L151 182L150 181M361 181L362 182L361 181z"/>
<path style="fill: #ffffff00; stroke:none;" d="M249 186.425C233.181 188.578 216.271 195.158 205.093 207.015C162.724 251.96 198.426 333.318 262 325.715C277.784 323.827 294.528 317.392 305.96 305.96C350.58 261.34 313.148 177.693 249 186.425z"/>
<path style="fill:#ff9c18; stroke:none;" d="M241 187L242 188L241 187M270 187L271 188L270 187z"/>
<path style="fill:#fff30d; stroke:none;" d="M221 195L222 196L221 195M290 195L291 196L290 195z"/>
<path style="fill:#ff9c18; stroke:none;" d="M219 196L220 197L219 196M292 196L293 197L292 196M140 198L141 199L140 198M216 198L217 199L216 198M295 198L296 199L295 198M371 198L372 199L371 198z"/>
<path style="fill:#fff30d; stroke:none;" d="M214 199L215 200L214 199M297 199L298 200L297 199M139 200L140 201L139 200M372 200L373 201L372 200M138 202L139 203L138 202M373 202L374 203L373 202M199 214L200 215L199 214M312 214L313 215L312 214z"/>
<path style="fill:#ff9c18; stroke:none;" d="M198 216L199 217L198 216M313 216L314 217L313 216M196 219L197 220L196 219M315 219L316 220L315 219z"/>
<path style="fill:#fff30d; stroke:none;" d="M195 221L196 222L195 221M316 221L317 222L316 221M21 227L22 228L21 227z"/>
<path style="fill: #6c4d7b; stroke:none;" d="M22 227.468C-2.86091 232.158 -7.41777 266.526 12 280.362C19.2085 285.498 27.5971 285 36 285C53.7987 285 75.6579 288.452 93 284.471C116.851 278.996 121.667 244.823 101.985 231.61C94.2252 226.4 84.897 227 76 227C58.7687 227 38.9331 224.273 22 227.468z"/>
<path style="fill:#ff9c18; stroke:none;" d="M91.6667 227.333L92.3333 227.667L91.6667 227.333M419.667 227.333L420.333 227.667L419.667 227.333z"/>
<path style="fill: #6c4d7b; stroke:none;" d="M421 227.465C396.082 231.957 389.237 266.151 410.015 280.401C417.721 285.687 426.106 285 435 285C452.584 285 473.854 288.255 491 284.319C515.546 278.685 519.264 243.955 499 230.97C491.452 226.133 482.548 227 474 227C457.014 227 437.717 224.45 421 227.465z"/>
<path style="fill:#fff30d; stroke:none;" d="M490 227L491 228L490 227z"/>
<path style="fill:#ff9c18; stroke:none;" d="M95 228L96 229L95 228M416 228L417 229L416 228M105 234L106 235L105 234M406 234L407 235L406 234M111 242L112 243L111 242z"/>
<path style="fill:#ff0101; stroke:none;" d="M127 242L128 243L127 242M384 242L385 243L384 242z"/>
<path style="fill:#ff9c18; stroke:none;" d="M400 242L401 243L400 242z"/>
<path style="fill:#fff30d; stroke:none;" d="M127 243L127 247L128 247L127 243M384 243L384 247L385 247L384 243z"/>
<path style="fill:#ff9c18; stroke:none;" d="M127 247L127 252L128 252L127 247M384 247L384 252L385 252L384 247M0 248L1 249L0 248M511 248L512 249L511 248z"/>
<path style="fill:#fff30d; stroke:none;" d="M127 252L128 253L127 252M384 252L385 253L384 252M127 259L128 260L127 259M384 259L385 260L384 259z"/>
<path style="fill:#ff9c18; stroke:none;" d="M127 260L127 265L128 265L127 260M384 260L384 265L385 265L384 260z"/>
<path style="fill:#fff30d; stroke:none;" d="M127 265L127 269L128 269L127 265M384 265L384 269L385 269L384 265z"/>
<path style="fill:#ff9c18; stroke:none;" d="M111 269L112 270L111 269z"/>
<path style="fill:#ff0101; stroke:none;" d="M127 269L128 270L127 269M384 269L385 270L384 269z"/>
<path style="fill:#ff9c18; stroke:none;" d="M400 269L401 270L400 269M187 270L188 271L187 270M324 270L325 271L324 270M105 277L106 278L105 277M406 277L407 278L406 277z"/>
<path style="fill:#fff30d; stroke:none;" d="M21 284L22 285L21 284M490 284L491 285L490 284M195 290L196 291L195 290M316 290L317 291L316 290z"/>
<path style="fill:#ff9c18; stroke:none;" d="M196 292L197 293L196 292M315 292L316 293L315 292M198 295L199 296L198 295M313 295L314 296L313 295z"/>
<path style="fill:#fff30d; stroke:none;" d="M199 297L200 298L199 297M312 297L313 298L312 297M138 309L139 310L138 309M373 309L374 310L373 309M139 311L140 312L139 311M372 311L373 312L372 311M214 312L215 313L214 312M297 312L298 313L297 312z"/>
<path style="fill:#ff9c18; stroke:none;" d="M140 313L141 314L140 313M216 313L217 314L216 313M295 313L296 314L295 313M371 313L372 314L371 313M219 315L220 316L219 315M292 315L293 316L292 315z"/>
<path style="fill:#fff30d; stroke:none;" d="M221 316L222 317L221 316M290 316L291 317L290 316z"/>
<path style="fill:#ff9c18; stroke:none;" d="M150 330L151 331L150 330M361 330L362 331L361 330M159 341L160 342L159 341M352 341L353 342L352 341z"/>
<path style="fill:#fff30d; stroke:none;" d="M161 344L162 345L161 344M350 344L351 345L350 344z"/>
<path style="fill:#ff9c18; stroke:none;" d="M162 345L163 346L162 345M349 345L350 346L349 345M163 346L164 347L163 346M348 346L349 347L348 346z"/>
<path style="fill: #6c4d7b; stroke:none;" d="M128 348.468C109.893 351.889 96.7058 374.958 83.9606 386.715C77.2091 392.942 69.4422 398.717 66.9275 408C60.8412 430.467 79.432 449.79 102 445.532C112.336 443.582 118.548 435.344 125.285 428.039C136.808 415.547 158.376 403.131 163.072 386C169.333 363.157 150.843 344.151 128 348.468z"/>
<path style="fill:#ff9c18; stroke:none;" d="M165 348L166 349L165 348M346 348L347 349L346 348z"/>
<path style="fill: #6c4d7b; stroke:none;" d="M369 348.468C351.678 351.799 343.842 372.554 349.559 388C352.715 396.525 360.755 402.755 367 409C382.018 424.018 399.638 450.976 424 445.471C441.744 441.462 450.773 421.558 444.069 405C440.58 396.38 432.407 391.332 426.17 384.91C410.48 368.758 394.741 343.519 369 348.468z"/>
<path style="fill:#fff30d; stroke:none;" d="M166 349L167 350L166 349M345 349L346 350L345 349z"/>
<path style="fill:#ff0101; stroke:none;" d="M167 350L168 351L167 350M344 350L345 351L344 350z"/>
<path style="fill:#ff9c18; stroke:none;" d="M118 352L119 353L118 352M393 352L394 353L393 352M181 361L182 362L181 361M330 361L331 362L330 361M163 369L164 370L163 369M348 369L349 370L348 369M198 371L199 372L198 371M313 371L314 372L313 371z"/>
<path style="fill:#fff30d; stroke:none;" d="M200 372L201 373L200 372M311 372L312 373L311 372M202 373L203 374L202 373M309 373L310 374L309 373z"/>
<path style="fill:#ff9c18; stroke:none;" d="M87 383L88 384L87 383M424 383L425 384L424 383z"/>
<path style="fill:#ff0101; stroke:none;" d="M242 384L243 385L242 384z"/>
<path style="fill:#fff30d; stroke:none;" d="M243 384L243 385L247 385L243 384z"/>
<path style="fill:#ff9c18; stroke:none;" d="M247 384L247 385L252 385L247 384z"/>
<path style="fill:#fff30d; stroke:none;" d="M252 384L253 385L252 384M259 384L260 385L259 384z"/>
<path style="fill:#ff9c18; stroke:none;" d="M260 384L260 385L265 385L260 384z"/>
<path style="fill:#fff30d; stroke:none;" d="M265 384L265 385L269 385L265 384z"/>
<path style="fill:#ff0101; stroke:none;" d="M269 384L270 385L269 384z"/>
<path style="fill:#ff9c18; stroke:none;" d="M84 386L85 387L84 386M427 386L428 387L427 386M83 387L84 388L83 387M428 387L429 388L428 387M159 393L160 394L159 393M352 393L353 394L352 393z"/>
<path style="fill: #6c4d7b; stroke:none;" d="M248 398.479C238.508 400.424 230.398 408.818 227.789 418C225.209 427.078 227 438.611 227 448C227 469.597 220.164 508.474 251 511.826C254.871 512.247 259.169 512.255 263 511.532C272.55 509.731 280.876 502.274 283.779 493C286.738 483.549 285 471.813 285 462C285 440.703 291.822 399.496 260 398.039C256.095 397.861 251.845 397.692 248 398.479z"/>
<path style="fill:#ff9c18; stroke:none;" d="M242 400L243 401L242 400M269 400L270 401L269 400M234 406L235 407L234 406M277 406L278 407L277 406M66 409L67 410L66 409M445 409L446 410L445 409M128 424L129 425L128 424M383 424L384 425L383 424M125 427L126 428L125 427M386 427L387 428L386 427M124 428L125 429L124 428M387 428L388 429L387 428M68 429L69 430L68 429M443 429L444 430L443 429M76 439L77 440L76 439M435 439L436 440L435 439M82 443L83 444L82 443M429 443L430 444L429 443M102 445L103 446L102 445M409 445L410 446L409 445z"/>
<path style="fill:#fff30d; stroke:none;" d="M227 490L228 491L227 490M284 490L285 491L284 490z"/>
<path style="fill:#ff9c18; stroke:none;" d="M248 511L249 512L248 511M263 511L264 512L263 511z"/>
</svg>